<svg width="821" height="648" viewBox="0 0 821 648" fill="none" xmlns="http://www.w3.org/2000/svg">
<rect width="821" height="648" fill="transparent"/>
<g id="shopping" clip-path="url(#clip0_0_1)">
<g id="Torso">
<path id="Vector" d="M90.851 642.359H101.88L107.127 599.817L90.849 599.818L90.851 642.359Z" fill="#FFB6B6"/>
<path id="Vector_2" d="M87.1156 636.919L104.551 635.878V643.348L121.127 654.796C121.946 655.361 122.562 656.173 122.887 657.114C123.211 658.055 123.226 659.074 122.93 660.024C122.634 660.974 122.042 661.805 121.241 662.394C120.439 662.984 119.47 663.302 118.475 663.302H97.7183L94.1405 655.913L92.7435 663.302H84.9172L87.1156 636.919Z" fill="#2F2E41"/>
<path id="Vector_3" d="M19.89 642.359H30.919L36.166 599.817L19.888 599.818L19.89 642.359Z" fill="#FFB6B6"/>
<path id="Vector_4" d="M16.1548 636.919L33.5899 635.878V643.348L50.166 654.796C50.9847 655.361 51.6014 656.173 51.9258 657.114C52.2503 658.055 52.2656 659.074 51.9695 660.024C51.6734 660.974 51.0814 661.805 50.28 662.394C49.4785 662.984 48.5095 663.302 47.5146 663.302H26.7574L23.1796 655.913L21.7826 663.302H13.9563L16.1548 636.919Z" fill="#2F2E41"/>
<path id="Vector_5" d="M75.6455 407.091L118.646 492.401C121.002 497.062 121.731 502.378 120.716 507.501C119.842 511.878 118.501 516.149 116.716 520.241L110.946 588.701L105.775 610.175L87.1755 611.761C87.1755 611.761 88.6155 593.761 83.5755 568.521C78.5355 543.281 87.1755 506.521 87.1755 506.521C87.1755 506.521 71.3255 480.581 53.3055 467.601C35.2855 454.621 75.6455 407.091 75.6455 407.091Z" fill="#2F2E41"/>
<path id="Vector_6" d="M29.5255 368.531C29.5255 368.531 20.6055 384.341 14.0155 392.851C7.92719 400.557 4.97989 410.281 5.76551 420.071C6.40551 427.071 8.86552 434.621 15.1155 440.601C15.1155 440.601 19.4355 451.411 17.2755 457.181V508.371C17.2755 508.371 5.70912 568.813 15.7991 586.833L20.1555 627.281C20.1555 627.281 35.4461 631.572 36.1661 624.372C36.1661 624.372 38.1655 608.551 38.9355 603.501L39.5155 551.771C39.6346 545.049 41.7205 538.51 45.5155 532.961C48.5155 528.551 51.5155 521.701 51.9155 511.961L75.6455 407.091L80.9284 370.457L29.5255 368.531Z" fill="#2F2E41"/>
<path id="Vector_7" d="M16.244 312.189L25.4675 358.306L5.26019 405.419L80.7505 376.318L81.7755 373.537L84.2728 364.066L81.3138 334.576C82.3532 332.411 97.1483 318.742 81.6747 294.709L64.9598 255.476L33.6518 255L33.5218 255.13C26.1604 262.479 20.7307 271.534 17.7162 281.489C14.7017 291.444 14.1959 301.991 16.244 312.189Z" fill="#6C63FF"/>
</g>
<g id="head">
<path id="Vector_8" d="M4.0968 246.909L80.5159 231.285C82.6204 224.265 86.6516 217.82 75.5219 206.858C73.7974 198.424 68.8674 190.988 61.7699 186.116C54.6724 181.243 45.9612 179.316 37.4707 180.738C19.93 179.177 10.0761 191.643 10.1269 208.377L4.0968 246.909Z" fill="#2F2E41"/>
<path id="Vector_9" d="M48.6585 236.352C63.0048 236.352 74.6349 224.722 74.6349 210.376C74.6349 196.03 63.0048 184.4 48.6585 184.4C34.3121 184.4 22.6821 196.03 22.6821 210.376C22.6821 224.722 34.3121 236.352 48.6585 236.352Z" fill="#FFB8B8"/>
<path id="Vector_10" d="M29.0759 188.645C32.5811 183.396 38.019 179.745 44.2044 178.488L49.103 177.487C55.3392 176.212 61.8265 177.466 67.1377 180.974C72.4489 184.482 76.149 189.956 77.424 196.193C73.9043 200.776 53.0349 204.25 40.5948 205.764C44.0786 218.334 57.4715 228.648 56.0226 236.292L7.036 246.308L6.03444 241.409C-2.56001 220.742 9.42853 199.586 29.0759 188.645Z" fill="#2F2E41"/>
<path id="Vector_11" d="M3.88483 248.307L80.304 232.683C82.4084 225.663 86.4396 219.218 75.3099 208.256C73.5855 199.822 68.6554 192.386 61.5579 187.514C54.4604 182.641 45.7492 180.714 37.2587 182.136C19.718 180.575 9.86408 193.041 9.91496 209.775L3.88483 248.307Z" fill="#2F2E41"/>
<path id="Vector_12" d="M48.4465 237.75C62.7928 237.75 74.4229 226.12 74.4229 211.774C74.4229 197.428 62.7928 185.798 48.4465 185.798C34.1001 185.798 22.4701 197.428 22.4701 211.774C22.4701 226.12 34.1001 237.75 48.4465 237.75Z" fill="#FFB8B8"/>
<path id="Vector_13" d="M28.8639 190.043C32.3691 184.794 37.807 181.143 43.9924 179.886L48.891 178.884C55.1272 177.609 61.6145 178.864 66.9257 182.372C72.2369 185.88 75.937 191.354 77.212 197.591C73.6923 202.174 52.8229 205.648 40.3828 207.162C43.8666 219.732 57.2595 230.046 55.8106 237.69L6.82401 247.706L5.82244 242.807C-2.77202 222.14 9.21654 200.983 28.8639 190.043Z" fill="#2F2E41"/>
</g>
<g id="top">
<path id="Vector_14" d="M819.924 36.5525H135.601C135.336 36.5466 135.083 36.437 134.898 36.2473C134.712 36.0575 134.608 35.8026 134.608 35.5371C134.608 35.2717 134.712 35.0168 134.898 34.827C135.083 34.6372 135.336 34.5277 135.601 34.5218H819.924C820.19 34.5277 820.443 34.6372 820.628 34.827C820.814 35.0168 820.918 35.2717 820.918 35.5371C820.918 35.8026 820.814 36.0575 820.628 36.2473C820.443 36.437 820.19 36.5466 819.924 36.5525Z" fill="#CACACA"/>
<path id="Vector_15" d="M157.956 22.3376C163.99 22.3376 168.882 17.3372 168.882 11.1688C168.882 5.00045 163.99 0 157.956 0C151.922 0 147.031 5.00045 147.031 11.1688C147.031 17.3372 151.922 22.3376 157.956 22.3376Z" fill="#3F3D56"/>
<path id="Vector_16" d="M195.698 22.3376C201.732 22.3376 206.624 17.3372 206.624 11.1688C206.624 5.00045 201.732 0 195.698 0C189.664 0 184.773 5.00045 184.773 11.1688C184.773 17.3372 189.664 22.3376 195.698 22.3376Z" fill="#3F3D56"/>
<path id="Vector_17" d="M233.44 22.3376C239.474 22.3376 244.366 17.3372 244.366 11.1688C244.366 5.00045 239.474 0 233.44 0C227.407 0 222.515 5.00045 222.515 11.1688C222.515 17.3372 227.407 22.3376 233.44 22.3376Z" fill="#3F3D56"/>
<path id="Vector_18" d="M797.311 6.8316H770.495C769.964 6.81988 769.459 6.60078 769.087 6.22123C768.716 5.84168 768.508 5.33184 768.508 4.8009C768.508 4.26996 768.716 3.76013 769.087 3.38058C769.459 3.00102 769.964 2.78192 770.495 2.7702H797.311C797.842 2.78192 798.347 3.00102 798.719 3.38058C799.09 3.76013 799.298 4.26996 799.298 4.8009C799.298 5.33184 799.09 5.84168 798.719 6.22123C798.347 6.60078 797.842 6.81988 797.311 6.8316Z" fill="#3F3D56"/>
<path id="Vector_19" d="M797.311 14.4467H770.495C769.964 14.435 769.459 14.2159 769.087 13.8363C768.716 13.4568 768.508 12.947 768.508 12.416C768.508 11.8851 768.716 11.3752 769.087 10.9957C769.459 10.6161 769.964 10.397 770.495 10.3853H797.311C797.842 10.397 798.347 10.6161 798.719 10.9957C799.09 11.3752 799.298 11.8851 799.298 12.416C799.298 12.947 799.09 13.4568 798.719 13.8363C798.347 14.2159 797.842 14.435 797.311 14.4467Z" fill="#3F3D56"/>
<path id="Vector_20" d="M797.311 22.0618H770.495C769.964 22.0501 769.459 21.831 769.087 21.4514C768.716 21.0719 768.508 20.5621 768.508 20.0311C768.508 19.5002 768.716 18.9903 769.087 18.6108C769.459 18.2312 769.964 18.0121 770.495 18.0004H797.311C797.842 18.0121 798.347 18.2312 798.719 18.6108C799.09 18.9903 799.298 19.5002 799.298 20.0311C799.298 20.5621 799.09 21.0719 798.719 21.4514C798.347 21.831 797.842 22.0501 797.311 22.0618Z" fill="#3F3D56"/>
</g>
<g id="shirt">
<path id="Vector_21" d="M238.183 289.612C237.851 288.877 237.681 288.08 237.686 287.273C237.69 286.467 237.869 285.671 238.209 284.94L250.086 259.405C251.258 255.45 253.95 252.121 257.572 250.148C261.195 248.174 265.452 247.717 269.41 248.878C273.369 250.038 276.706 252.72 278.69 256.337C280.673 259.954 281.143 264.209 279.994 268.171L276.024 296.144C275.911 296.943 275.627 297.707 275.191 298.386C274.756 299.064 274.179 299.641 273.501 300.077C272.822 300.513 272.058 300.797 271.26 300.911C270.461 301.024 269.648 300.964 268.875 300.735L241.703 292.685C240.93 292.456 240.215 292.063 239.607 291.533C239 291.003 238.514 290.348 238.183 289.612Z" fill="#3F3D56"/>
<path id="Vector_22" d="M367.388 276.873L340.216 284.924C339.443 285.153 338.63 285.213 337.831 285.099C337.033 284.985 336.269 284.701 335.59 284.265C334.912 283.829 334.335 283.253 333.9 282.574C333.464 281.895 333.18 281.131 333.067 280.332L329.097 252.359C327.949 248.398 328.418 244.142 330.402 240.525C332.386 236.909 335.722 234.226 339.681 233.066C343.639 231.906 347.897 232.362 351.519 234.336C355.141 236.309 357.833 239.638 359.005 243.593L370.882 269.128C371.222 269.86 371.4 270.655 371.405 271.462C371.409 272.268 371.24 273.066 370.908 273.801C370.577 274.536 370.091 275.191 369.483 275.721C368.876 276.251 368.161 276.644 367.388 276.873Z" fill="#3F3D56"/>
<path id="Vector_23" d="M260.495 254.07L281.803 238.572L316.672 228.887L345.729 234.698L347.437 250.755C349.515 270.285 348.613 290.019 344.761 309.278L344.053 324.121L269.212 326.712L261.463 313.152C261.463 313.152 244.029 295.718 257.589 276.347L260.495 254.07Z" fill="#3F3D56"/>
</g>
<g id="pants">
<path id="Vector_24" d="M725.494 427.8H527.361C521.871 427.793 516.608 425.61 512.726 421.728C508.844 417.846 506.661 412.583 506.655 407.094V148.505C506.661 143.016 508.844 137.753 512.726 133.871C516.608 129.989 521.871 127.806 527.361 127.8H725.494C730.984 127.806 736.247 129.989 740.128 133.871C744.01 137.753 746.193 143.016 746.2 148.505V407.094C746.194 412.583 744.01 417.846 740.128 421.728C736.247 425.61 730.984 427.793 725.494 427.8Z" fill="#F0F0F0"/>
<path id="Vector_25" d="M672.573 223.539V240.761L670.89 261.8C670.89 261.8 670.358 280.172 669.716 294.664C669.327 303.473 668.89 310.846 668.509 311.798C668.041 312.965 668.152 316.147 668.422 319.489C668.739 323.354 669.263 327.433 669.35 328.798C669.517 331.345 668.168 342.289 668.168 342.289C668.168 342.289 666.66 369.733 664.47 371.923C662.279 374.114 664.47 380.344 664.47 380.344C654.2 387.915 641.232 378.661 641.232 378.661C644.097 374.098 639.55 342.948 639.55 342.948C639.55 342.948 638.883 332.314 637.534 329.456C636.185 326.599 635.843 308.751 635.843 308.751V282.315C635.843 282.315 632.304 276.903 631.804 274.379C631.304 271.855 631.804 262.935 631.804 262.935L628.106 250.475L625.574 260.236C625.574 260.236 619.019 287.513 617.836 290.878C617.194 293.127 617.432 295.537 618.503 297.616C618.503 297.616 620.193 302.807 618.503 305.187C617.453 306.679 616.649 308.33 616.122 310.076C616.122 310.076 615.257 320.012 613.741 323.568C612.225 327.123 610.884 331.504 610.884 331.504C610.884 331.504 611.241 338.218 609.725 339.734C608.21 341.25 607.71 348.829 607.71 348.829C607.71 348.829 608.043 357.408 606.019 360.44C603.995 363.471 603.995 380.645 603.995 380.645C600.486 382.897 596.441 384.178 592.275 384.355C588.109 384.532 583.97 383.599 580.282 381.653C580.282 381.653 582.282 379.78 580.766 371.05C579.25 362.321 581.853 338.551 581.853 338.551C581.853 338.551 581.52 332.52 583.202 329.822C584.885 327.123 582.353 321.909 583.028 319.552C583.702 317.195 585.726 304.394 585.726 304.394C585.726 304.394 584.885 272.911 584.885 271.228C584.686 268.233 583.875 265.311 582.504 262.641C580.988 259.951 582.504 240.42 582.504 240.42C582.504 240.42 586.075 230.325 584.885 228.134C583.694 225.944 585.678 222.071 585.678 222.071C585.678 222.071 583.829 217.524 585.678 216.682C587.528 215.841 587.869 212.476 587.869 212.476L589.154 196.143C589.154 196.143 589.639 188.731 591.178 188.398C592.718 188.064 592.043 185.207 593.559 183.183C594.298 181.815 594.807 180.335 595.067 178.803C595.281 177.866 595.48 176.89 595.646 175.953C596.123 173.414 596.416 171.223 596.416 171.223C606.353 179.477 658.597 173.692 658.652 173.692C661.97 174.414 665.914 185.929 668.763 195.969C671.296 204.94 672.578 214.218 672.573 223.539Z" fill="#3F3D56"/>
</g>
<g id="select">
<path id="Vector_26" d="M403.612 428.799H205.479C199.724 428.793 194.207 426.504 190.138 422.434C186.069 418.365 183.78 412.848 183.773 407.093V148.505C183.78 142.751 186.069 137.234 190.138 133.164C194.207 129.095 199.724 126.806 205.479 126.8H403.612C409.367 126.806 414.884 129.095 418.953 133.164C423.023 137.233 425.312 142.751 425.318 148.505V407.093C425.312 412.848 423.023 418.365 418.953 422.434C414.884 426.504 409.367 428.793 403.612 428.799ZM205.479 128.8C200.254 128.806 195.246 130.884 191.551 134.578C187.857 138.272 185.779 143.281 185.773 148.505V407.093C185.779 412.318 187.857 417.326 191.551 421.021C195.245 424.715 200.254 426.793 205.479 426.799H403.612C408.837 426.793 413.846 424.715 417.54 421.021C421.234 417.327 423.312 412.318 423.318 407.093V148.505C423.312 143.281 421.234 138.272 417.54 134.578C413.846 130.883 408.837 128.805 403.612 128.8H205.479Z" fill="#6C63FF"/>
<path id="Vector_27" d="M301.04 459.803C320.818 459.803 336.851 443.77 336.851 423.992C336.851 404.214 320.818 388.181 301.04 388.181C281.262 388.181 265.229 404.214 265.229 423.992C265.229 443.77 281.262 459.803 301.04 459.803Z" fill="#6C63FF"/>
<path id="Vector_28" d="M296.155 442.63C295.536 442.63 294.926 442.486 294.373 442.209C293.82 441.932 293.339 441.531 292.968 441.036L283.198 428.009C282.884 427.591 282.654 427.115 282.524 426.607C282.393 426.1 282.364 425.573 282.438 425.054C282.512 424.536 282.687 424.037 282.953 423.586C283.22 423.136 283.573 422.742 283.992 422.428C284.411 422.114 284.887 421.885 285.395 421.756C285.902 421.626 286.43 421.597 286.948 421.672C287.466 421.746 287.965 421.922 288.415 422.189C288.865 422.457 289.258 422.81 289.572 423.229L295.964 431.751L312.38 407.127C312.669 406.69 313.042 406.314 313.477 406.022C313.912 405.729 314.4 405.525 314.914 405.421C315.428 405.318 315.957 405.317 316.471 405.418C316.986 405.519 317.475 405.721 317.911 406.012C318.347 406.303 318.722 406.676 319.013 407.112C319.304 407.548 319.507 408.037 319.609 408.551C319.711 409.065 319.71 409.595 319.607 410.109C319.504 410.622 319.301 411.111 319.009 411.546L299.469 440.856C299.116 441.386 298.64 441.823 298.083 442.132C297.526 442.44 296.902 442.61 296.265 442.628C296.228 442.629 296.192 442.63 296.155 442.63Z" fill="white"/>
</g>
<g id="right-arm">
<path id="Vector_29" d="M66.1547 429.563C65.1234 428.784 64.2755 427.788 63.6708 426.646C63.066 425.503 62.7192 424.242 62.6546 422.951C62.59 421.66 62.8093 420.37 63.297 419.173C63.7846 417.976 64.5289 416.9 65.4773 416.022L52.8621 387.242L68.956 390.003L78.4682 416.909C79.8383 418.6 80.5406 420.735 80.4418 422.909C80.3431 425.083 79.4501 427.146 77.9323 428.706C76.4145 430.265 74.3772 431.214 72.2065 431.372C70.0358 431.53 67.8826 430.887 66.1547 429.563Z" fill="#FFB6B6"/>
<path id="Vector_30" d="M24.8942 348.088L30.9003 273.763C31.3827 267.872 34.1823 262.413 38.6847 258.584C43.1871 254.755 49.0247 252.868 54.9165 253.338C58.1783 253.601 61.342 254.58 64.183 256.204C67.024 257.827 69.4728 260.057 71.3553 262.734C73.2378 265.41 74.5081 268.468 75.0757 271.691C75.6434 274.914 75.4947 278.222 74.6401 281.381L57.3487 345.286L77.8754 399.357L62.0854 408.999L24.8942 348.088Z" fill="#6C63FF"/>
</g>
<path id="heart" d="M736.795 123.096L736.775 123.114C734.858 121.165 732.265 120.027 729.533 119.937C726.801 119.847 724.139 120.812 722.098 122.631C720.058 124.45 718.795 126.985 718.573 129.709C718.35 132.434 719.184 135.14 720.901 137.267L720.881 137.285L735.07 153.199L750.984 139.01C753.094 137.128 754.37 134.486 754.532 131.663C754.694 128.84 753.728 126.069 751.846 123.959C749.965 121.848 747.322 120.572 744.499 120.41C741.677 120.248 738.905 121.215 736.795 123.096Z" fill="#D1D3D4"/>
<g id="left-arm">
<path id="Vector_31" d="M197.752 303.071C196.693 303.813 195.485 304.314 194.212 304.538C192.939 304.763 191.632 304.706 190.384 304.371C189.135 304.035 187.975 303.431 186.986 302.599C185.996 301.767 185.201 300.728 184.657 299.556L153.394 302.721L160.964 288.253L189.491 287.466C191.522 286.681 193.769 286.669 195.808 287.431C197.846 288.192 199.535 289.676 200.553 291.599C201.571 293.523 201.848 295.753 201.332 297.867C200.816 299.982 199.542 301.833 197.752 303.071Z" fill="#FFB6B6"/>
<path id="Vector_32" d="M107.541 317.31L38.6545 288.764C33.1966 286.495 28.8616 282.154 26.6004 276.693C24.3393 271.232 24.3369 265.098 26.5936 259.635C27.8464 256.612 29.7494 253.902 32.1674 251.697C34.5855 249.492 37.4592 247.846 40.5847 246.877C43.7102 245.908 47.0108 245.638 50.2521 246.088C53.4934 246.538 56.596 247.695 59.3396 249.479L114.843 285.564L172.606 282.638L176.931 300.627L107.541 317.31Z" fill="#6C63FF"/>
</g>
</g>
<defs>
<clipPath id="clip0_0_1">
<rect width="820.918" height="647.102" fill="white"/>
</clipPath>
</defs>
</svg>
